#N canvas 1783 266 575 878 10;
#X obj 39 132 oscparse;
#X obj 56 44 loadbang;
#X msg 195 109 \; pd dsp 1;
#X obj 39 111 netreceive -u -b 5005;
#X obj 195 80 delay 1000;
#X msg 39 86 listen 5005;
#X obj 109 177 route list;
#X obj 119 236 route x y z;
#X floatatom 88 269 5 0 0 0 - - -, f 5;
#X floatatom 136 271 5 0 0 0 - - -, f 5;
#X floatatom 191 270 5 0 0 0 - - -, f 5;
#X obj 399 347 -;
#X obj 395 306 t f f;
#X floatatom 399 377 5 0 0 0 - - -, f 5;
#X obj 402 453 sel 1;
#X obj 398 414 < -1.1;
#X obj 45 306 + 1;
#X floatatom 93 337 5 0 0 0 - - -, f 5;
#X floatatom 93 377 5 0 0 0 - - -, f 5;
#X obj 95 355 * 6;
#X obj 94 394 int;
#X floatatom 95 416 5 0 0 0 - - -, f 5;
#X obj 93 514 mtof;
#X obj 133 714 dac~;
#X obj 93 538 osc~;
#X obj 189 308 + 1;
#X floatatom 237 339 5 0 0 0 - - -, f 5;
#X floatatom 235 378 5 0 0 0 - - -, f 5;
#X obj 237 356 * 6;
#X obj 236 395 int;
#X floatatom 237 417 5 0 0 0 - - -, f 5;
#X obj 237 516 mtof;
#X obj 237 540 osc~;
#X obj 97 491 + 60;
#X obj 242 493 + 72;
#X obj 11 465 sel 0 2 4 5 7 9 11 12;
#X obj 183 458 sel 0 2 4 5 7 9 11 12;
#X obj 71 589 *~;
#X obj 190 646 *~;
#X obj 323 573 line~;
#X msg 328 512 1 10;
#X obj 398 520 delay 10;
#X obj 403 479 t b b;
#X msg 400 543 0 5000;
#X obj 33 433 moses 12;
#X obj 226 437 moses 12;
#X obj 285 633 *~ 0.5;
#X obj 362 732 delwrite~ delaytje1 1000;
#X obj 298 768 delread4~ delaytje1;
#X obj 448 645 sig~;
#X obj 428 670 lop~ 1;
#X obj 274 833 *~ 0.8;
#X obj 320 702 *~ 0.4;
#X obj 217 757 *~ 0.2;
#X obj 470 481 random 600;
#X connect 0 0 6 0;
#X connect 1 0 4 0;
#X connect 1 0 5 0;
#X connect 3 0 0 0;
#X connect 4 0 2 0;
#X connect 5 0 3 0;
#X connect 6 0 7 0;
#X connect 7 0 8 0;
#X connect 7 1 9 0;
#X connect 7 2 10 0;
#X connect 8 0 16 0;
#X connect 9 0 25 0;
#X connect 10 0 12 0;
#X connect 11 0 13 0;
#X connect 12 0 11 1;
#X connect 12 1 11 0;
#X connect 13 0 15 0;
#X connect 14 0 42 0;
#X connect 14 0 54 0;
#X connect 15 0 14 0;
#X connect 16 0 17 0;
#X connect 17 0 19 0;
#X connect 18 0 20 0;
#X connect 19 0 18 0;
#X connect 20 0 21 0;
#X connect 21 0 44 0;
#X connect 22 0 24 0;
#X connect 24 0 37 0;
#X connect 25 0 26 0;
#X connect 26 0 28 0;
#X connect 27 0 29 0;
#X connect 28 0 27 0;
#X connect 29 0 30 0;
#X connect 30 0 45 0;
#X connect 31 0 32 0;
#X connect 32 0 38 0;
#X connect 33 0 22 0;
#X connect 34 0 31 0;
#X connect 35 8 33 0;
#X connect 36 8 34 0;
#X connect 37 0 23 0;
#X connect 37 0 52 0;
#X connect 38 0 23 1;
#X connect 38 0 52 0;
#X connect 39 0 37 1;
#X connect 39 0 46 0;
#X connect 40 0 39 0;
#X connect 41 0 43 0;
#X connect 42 0 40 0;
#X connect 42 1 41 0;
#X connect 43 0 39 0;
#X connect 44 0 35 0;
#X connect 45 0 36 0;
#X connect 46 0 38 1;
#X connect 48 0 51 0;
#X connect 48 0 53 0;
#X connect 49 0 50 0;
#X connect 50 0 48 0;
#X connect 51 0 47 0;
#X connect 52 0 47 0;
#X connect 53 0 23 0;
#X connect 53 0 23 1;
#X connect 54 0 49 0;
